<svg id="Camada_1" data-name="Camada 1" xmlns="http://www.w3.org/2000/svg" viewBox="0 0 638.81 91.15"><defs><style>.cls-1{fill:none;stroke:#fff;stroke-miterlimit:10;stroke-width:0.5px;}</style></defs><line class="cls-1" x1="16.38" y1="25.06" x2="78.8" y2="11.52"/><line class="cls-1" x1="20.75" y1="20.52" x2="78.8" y2="11.52"/><line class="cls-1" x1="11.76" y1="29.53" x2="78.8" y2="11.52"/><line class="cls-1" x1="29.74" y1="11.58" x2="78.8" y2="11.52"/><line class="cls-1" x1="16.32" y1="74.06" x2="78.8" y2="83.16"/><line class="cls-1" x1="7.39" y1="64.97" x2="78.8" y2="83.16"/><line class="cls-1" x1="20.82" y1="78.63" x2="78.8" y2="83.16"/><line class="cls-1" x1="11.69" y1="69.71" x2="78.8" y2="83.16"/><line class="cls-1" x1="25.18" y1="83.09" x2="78.8" y2="83.16"/><line class="cls-1" x1="7.32" y1="47.38" x2="60.95" y2="11.68"/><line class="cls-1" x1="7.26" y1="56.22" x2="60.95" y2="11.68"/><line class="cls-1" x1="7.52" y1="42.73" x2="60.95" y2="11.68"/><line class="cls-1" x1="7.26" y1="51.91" x2="60.95" y2="11.68"/><line class="cls-1" x1="7.32" y1="38.48" x2="60.84" y2="11.63"/><line class="cls-1" x1="7.32" y1="38.48" x2="78.8" y2="11.52"/><line class="cls-1" x1="7.52" y1="42.73" x2="78.8" y2="11.52"/><line class="cls-1" x1="25.18" y1="16.02" x2="78.8" y2="11.52"/><line class="cls-1" x1="7.3" y1="47.38" x2="60.92" y2="83.07"/><line class="cls-1" x1="7.23" y1="38.54" x2="60.92" y2="83.07"/><line class="cls-1" x1="7.5" y1="52.03" x2="60.92" y2="83.07"/><line class="cls-1" x1="7.23" y1="42.85" x2="60.92" y2="83.07"/><line class="cls-1" x1="7.3" y1="56.27" x2="60.81" y2="83.12"/><line class="cls-1" x1="82.49" y1="46.98" x2="117.87" y2="10.45"/><line class="cls-1" x1="82.46" y1="58.33" x2="117.87" y2="10.45"/><line class="cls-1" x1="82.6" y1="41.59" x2="117.87" y2="10.45"/><line class="cls-1" x1="82.46" y1="53.04" x2="117.87" y2="10.45"/><line class="cls-1" x1="82.49" y1="36.32" x2="117.87" y2="10.45"/><line class="cls-1" x1="82.6" y1="41.59" x2="117.87" y2="10.45"/><line class="cls-1" x1="82.48" y1="46.98" x2="118.15" y2="82.62"/><line class="cls-1" x1="82.44" y1="36.38" x2="118.15" y2="82.62"/><line class="cls-1" x1="82.59" y1="53.16" x2="118.15" y2="82.62"/><line class="cls-1" x1="82.44" y1="41.71" x2="118.15" y2="82.62"/><line class="cls-1" x1="82.48" y1="58.39" x2="118.09" y2="82.67"/><line class="cls-1" x1="153.15" y1="46.98" x2="117.77" y2="10.45"/><line class="cls-1" x1="153.18" y1="58.33" x2="117.77" y2="10.45"/><line class="cls-1" x1="153.04" y1="41.59" x2="117.77" y2="10.45"/><line class="cls-1" x1="153.18" y1="53.04" x2="117.77" y2="10.45"/><line class="cls-1" x1="153.15" y1="36.32" x2="117.77" y2="10.45"/><line class="cls-1" x1="153.04" y1="41.59" x2="117.77" y2="10.45"/><line class="cls-1" x1="153.16" y1="46.98" x2="117.49" y2="82.62"/><line class="cls-1" x1="153.2" y1="36.38" x2="117.49" y2="82.62"/><line class="cls-1" x1="153.05" y1="53.16" x2="117.49" y2="82.62"/><line class="cls-1" x1="153.2" y1="41.71" x2="117.49" y2="82.62"/><line class="cls-1" x1="153.16" y1="58.39" x2="117.56" y2="82.67"/><line class="cls-1" x1="475.1" y1="46.98" x2="510.48" y2="10.45"/><line class="cls-1" x1="475.07" y1="58.33" x2="510.48" y2="10.45"/><line class="cls-1" x1="475.21" y1="41.59" x2="510.48" y2="10.45"/><line class="cls-1" x1="475.07" y1="53.04" x2="510.48" y2="10.45"/><line class="cls-1" x1="475.1" y1="36.32" x2="510.48" y2="10.45"/><line class="cls-1" x1="475.21" y1="41.59" x2="510.48" y2="10.45"/><line class="cls-1" x1="475.09" y1="46.98" x2="510.76" y2="82.62"/><line class="cls-1" x1="475.06" y1="36.38" x2="510.76" y2="82.62"/><line class="cls-1" x1="475.2" y1="53.16" x2="510.76" y2="82.62"/><line class="cls-1" x1="475.06" y1="41.71" x2="510.76" y2="82.62"/><line class="cls-1" x1="475.09" y1="58.39" x2="510.7" y2="82.67"/><line class="cls-1" x1="545.76" y1="46.98" x2="510.38" y2="10.45"/><line class="cls-1" x1="545.8" y1="58.33" x2="510.38" y2="10.45"/><line class="cls-1" x1="545.65" y1="41.59" x2="510.38" y2="10.45"/><line class="cls-1" x1="545.8" y1="53.04" x2="510.38" y2="10.45"/><line class="cls-1" x1="545.76" y1="36.32" x2="510.38" y2="10.45"/><line class="cls-1" x1="545.65" y1="41.59" x2="510.38" y2="10.45"/><line class="cls-1" x1="545.78" y1="46.98" x2="510.11" y2="82.62"/><line class="cls-1" x1="545.81" y1="36.38" x2="510.11" y2="82.62"/><line class="cls-1" x1="545.67" y1="53.16" x2="510.11" y2="82.62"/><line class="cls-1" x1="545.81" y1="41.71" x2="510.11" y2="82.62"/><line class="cls-1" x1="545.78" y1="58.39" x2="510.17" y2="82.67"/><line class="cls-1" x1="168.41" y1="10.54" x2="164.01" y2="82.14"/><line class="cls-1" x1="172.8" y1="10.6" x2="164.02" y2="81.76"/><line class="cls-1" x1="177.22" y1="10.6" x2="164.02" y2="81.76"/><line class="cls-1" x1="181.77" y1="10.6" x2="164.02" y2="81.76"/><line class="cls-1" x1="164" y1="10.78" x2="164.02" y2="81.76"/><line class="cls-1" x1="235.33" y1="82.41" x2="235.21" y2="10.54"/><line class="cls-1" x1="228.99" y1="82.71" x2="235.2" y2="10.92"/><line class="cls-1" x1="222" y1="82.71" x2="235.2" y2="10.92"/><line class="cls-1" x1="213.78" y1="82.41" x2="235.2" y2="10.92"/><line class="cls-1" x1="235.22" y1="81.9" x2="235.2" y2="10.92"/><line class="cls-1" x1="164.03" y1="10.83" x2="235.33" y2="82.41"/><line class="cls-1" x1="164.03" y1="10.83" x2="228.99" y2="82.41"/><line class="cls-1" x1="164.03" y1="10.83" x2="222" y2="82.71"/><line class="cls-1" x1="164.03" y1="10.83" x2="213.46" y2="82.41"/><line class="cls-1" x1="381.77" y1="84.56" x2="358.79" y2="12.34"/><line class="cls-1" x1="376.89" y1="84.56" x2="358.66" y2="12.07"/><line class="cls-1" x1="372.44" y1="84.56" x2="358.66" y2="12.07"/><line class="cls-1" x1="385.94" y1="84.56" x2="358.79" y2="12.34"/><line class="cls-1" x1="386.22" y1="84.56" x2="339.41" y2="16.22"/><line class="cls-1" x1="386.22" y1="84.56" x2="344.1" y2="12.07"/><line class="cls-1" x1="386.22" y1="84.56" x2="349.64" y2="12.07"/><line class="cls-1" x1="318.17" y1="84.56" x2="341.15" y2="12.34"/><line class="cls-1" x1="323.05" y1="84.56" x2="341.27" y2="12.07"/><line class="cls-1" x1="327.5" y1="84.56" x2="341.27" y2="12.07"/><line class="cls-1" x1="314" y1="84.56" x2="341.15" y2="12.34"/><line class="cls-1" x1="313.72" y1="84.56" x2="359.58" y2="15.7"/><line class="cls-1" x1="313.72" y1="84.56" x2="356.29" y2="12.34"/><line class="cls-1" x1="313.72" y1="84.56" x2="350.3" y2="12.07"/><line class="cls-1" x1="386.49" y1="56.8" x2="314.11" y2="56.8"/><line class="cls-1" x1="386.49" y1="52.1" x2="314.11" y2="56.8"/><line class="cls-1" x1="386.49" y1="47.71" x2="314.11" y2="56.8"/><line class="cls-1" x1="386.49" y1="43" x2="314.11" y2="56.8"/><line class="cls-1" x1="247.38" y1="17.39" x2="318.17" y2="12.47"/><line class="cls-1" x1="248.48" y1="21.79" x2="318.17" y2="12.47"/><line class="cls-1" x1="249.62" y1="26.36" x2="318.17" y2="12.47"/><line class="cls-1" x1="250.69" y1="30.62" x2="318.17" y2="12.47"/><line class="cls-1" x1="318.17" y1="12.47" x2="246.21" y2="12.52"/><line class="cls-1" x1="317.05" y1="17.39" x2="246.21" y2="12.52"/><line class="cls-1" x1="315.85" y1="22.14" x2="246.21" y2="12.52"/><line class="cls-1" x1="314.79" y1="26.28" x2="246.21" y2="12.52"/><line class="cls-1" x1="313.7" y1="30.6" x2="246.21" y2="12.52"/><line class="cls-1" x1="273.35" y1="12.12" x2="282.56" y2="84.24"/><line class="cls-1" x1="292.42" y1="12.04" x2="282.56" y2="84.24"/><line class="cls-1" x1="273.32" y1="84.24" x2="282.52" y2="22.06"/><line class="cls-1" x1="291.06" y1="84.22" x2="282.42" y2="22.08"/><line class="cls-1" x1="282.56" y1="84.24" x2="282.42" y2="12.49"/><line class="cls-1" x1="277.11" y1="84.24" x2="282.52" y2="22.06"/><line class="cls-1" x1="288.18" y1="84.22" x2="282.42" y2="22.08"/><line class="cls-1" x1="395.45" y1="17.39" x2="466.24" y2="12.47"/><line class="cls-1" x1="396.55" y1="21.79" x2="466.24" y2="12.47"/><line class="cls-1" x1="397.7" y1="26.36" x2="466.24" y2="12.47"/><line class="cls-1" x1="398.76" y1="30.62" x2="466.24" y2="12.47"/><line class="cls-1" x1="466.24" y1="12.47" x2="394.28" y2="12.52"/><line class="cls-1" x1="465.12" y1="17.39" x2="394.28" y2="12.52"/><line class="cls-1" x1="463.92" y1="22.14" x2="394.28" y2="12.52"/><line class="cls-1" x1="462.87" y1="26.28" x2="394.28" y2="12.52"/><line class="cls-1" x1="461.77" y1="30.6" x2="394.28" y2="12.52"/><line class="cls-1" x1="421.42" y1="12.12" x2="430.63" y2="84.24"/><line class="cls-1" x1="440.49" y1="12.04" x2="430.63" y2="84.24"/><line class="cls-1" x1="421.39" y1="84.24" x2="430.6" y2="22.06"/><line class="cls-1" x1="439.13" y1="84.22" x2="430.5" y2="22.08"/><line class="cls-1" x1="430.63" y1="84.24" x2="430.5" y2="12.49"/><line class="cls-1" x1="425.19" y1="84.24" x2="430.6" y2="22.06"/><line class="cls-1" x1="436.25" y1="84.22" x2="430.5" y2="22.08"/><line class="cls-1" x1="590.51" y1="51.4" x2="557.11" y2="23.19"/><line class="cls-1" x1="590.51" y1="51.4" x2="561.04" y2="19.45"/><polyline class="cls-1" points="568.06 16.84 583.76 41.01 584.85 42.69 590.51 51.4"/><polyline class="cls-1" points="577.13 14.84 587.23 42.44 587.23 42.44 587.84 44.08 590.51 51.4"/><line class="cls-1" x1="629.97" y1="12.17" x2="562.31" y2="16.84"/><line class="cls-1" x1="629.97" y1="12.17" x2="557.86" y2="21.79"/><line class="cls-1" x1="629.97" y1="12.17" x2="558.86" y2="28.47"/><line class="cls-1" x1="629.97" y1="12.17" x2="563.11" y2="32.44"/><polyline class="cls-1" points="587.23 42.44 587.23 42.44 587.35 42.49 587.38 42.5 587.41 42.51 587.45 42.53 619.88 55.87"/><line class="cls-1" x1="625" y1="63.49" x2="590.41" y2="45.29"/><line class="cls-1" x1="623.87" y1="68.37" x2="600.01" y2="54.24"/><polyline class="cls-1" points="624.51 73.7 609.7 63.28 609.69 63.27"/><polyline class="cls-1" points="587.32 42.41 587.45 42.53 590.41 45.29 600.01 54.24 609.69 63.27 609.7 63.28 623.57 76.22"/><polyline class="cls-1" points="587.32 42.41 587.41 42.51 589.39 44.81 594.94 51.26 599.49 56.55 619.63 79.97"/><polyline class="cls-1" points="587.32 42.41 587.38 42.5 588.6 44.44 591.7 49.36 593.91 52.88 612.62 82.57"/><polyline class="cls-1" points="587.32 42.41 587.35 42.49 587.99 44.16 588 44.16 589.5 48.06 590.48 50.61 603.55 84.58"/><line class="cls-1" x1="555.3" y1="68.37" x2="603.55" y2="84.58"/><line class="cls-1" x1="555.3" y1="68.37" x2="612.62" y2="82.57"/><line class="cls-1" x1="555.3" y1="68.37" x2="619.63" y2="79.97"/><line class="cls-1" x1="555.3" y1="68.37" x2="623.87" y2="76.22"/></svg>