<svg id="Camada_1" data-name="Camada 1" xmlns="http://www.w3.org/2000/svg" viewBox="0 0 638.81 91.15"><defs><style>.cls-1{fill:none;stroke:#fff;stroke-miterlimit:10;stroke-width:0.5px;}</style></defs><line class="cls-1" x1="16.38" y1="25.06" x2="78.8" y2="11.52"/><line class="cls-1" x1="20.75" y1="20.52" x2="78.8" y2="11.52"/><line class="cls-1" x1="11.76" y1="29.53" x2="78.8" y2="11.52"/><line class="cls-1" x1="29.74" y1="11.58" x2="78.8" y2="11.52"/><line class="cls-1" x1="16.32" y1="74.06" x2="78.8" y2="83.16"/><line class="cls-1" x1="7.39" y1="64.97" x2="78.8" y2="83.16"/><line class="cls-1" x1="20.82" y1="78.63" x2="78.8" y2="83.16"/><line class="cls-1" x1="11.69" y1="69.71" x2="78.8" y2="83.16"/><line class="cls-1" x1="25.18" y1="83.09" x2="78.8" y2="83.16"/><line class="cls-1" x1="7.32" y1="47.38" x2="60.95" y2="11.68"/><line class="cls-1" x1="7.26" y1="56.22" x2="60.95" y2="11.68"/><line class="cls-1" x1="7.52" y1="42.73" x2="60.95" y2="11.68"/><line class="cls-1" x1="7.26" y1="51.91" x2="60.95" y2="11.68"/><line class="cls-1" x1="7.32" y1="38.48" x2="60.84" y2="11.63"/><line class="cls-1" x1="7.32" y1="38.48" x2="78.8" y2="11.52"/><line class="cls-1" x1="7.52" y1="42.73" x2="78.8" y2="11.52"/><line class="cls-1" x1="25.18" y1="16.02" x2="78.8" y2="11.52"/><line class="cls-1" x1="7.3" y1="47.38" x2="60.92" y2="83.07"/><line class="cls-1" x1="7.23" y1="38.54" x2="60.92" y2="83.07"/><line class="cls-1" x1="7.5" y1="52.03" x2="60.92" y2="83.07"/><line class="cls-1" x1="7.23" y1="42.85" x2="60.92" y2="83.07"/><line class="cls-1" x1="7.3" y1="56.27" x2="60.81" y2="83.12"/><line class="cls-1" x1="252.89" y1="23.79" x2="315.31" y2="10.24"/><line class="cls-1" x1="257.26" y1="19.25" x2="315.31" y2="10.24"/><line class="cls-1" x1="248.27" y1="28.26" x2="315.31" y2="10.24"/><line class="cls-1" x1="266.26" y1="10.31" x2="315.31" y2="10.24"/><line class="cls-1" x1="252.83" y1="72.79" x2="315.31" y2="81.89"/><line class="cls-1" x1="243.9" y1="63.7" x2="315.31" y2="81.89"/><line class="cls-1" x1="257.34" y1="77.35" x2="315.31" y2="81.89"/><line class="cls-1" x1="248.21" y1="68.43" x2="315.31" y2="81.89"/><line class="cls-1" x1="261.7" y1="81.81" x2="315.31" y2="81.89"/><line class="cls-1" x1="243.84" y1="46.11" x2="297.46" y2="10.41"/><line class="cls-1" x1="243.77" y1="54.94" x2="297.46" y2="10.41"/><line class="cls-1" x1="244.04" y1="41.45" x2="297.46" y2="10.41"/><line class="cls-1" x1="243.77" y1="50.64" x2="297.46" y2="10.41"/><line class="cls-1" x1="243.84" y1="37.21" x2="297.35" y2="10.36"/><line class="cls-1" x1="243.84" y1="37.21" x2="315.31" y2="10.24"/><line class="cls-1" x1="244.04" y1="41.45" x2="315.31" y2="10.24"/><line class="cls-1" x1="261.7" y1="14.75" x2="315.31" y2="10.24"/><line class="cls-1" x1="243.81" y1="46.11" x2="297.44" y2="81.8"/><line class="cls-1" x1="243.75" y1="37.27" x2="297.44" y2="81.8"/><line class="cls-1" x1="244.01" y1="50.76" x2="297.44" y2="81.8"/><line class="cls-1" x1="243.75" y1="41.57" x2="297.44" y2="81.8"/><line class="cls-1" x1="243.81" y1="55" x2="297.33" y2="81.85"/><polyline class="cls-1" points="324.4 10.16 327.71 46.4 328.79 58.1 329.28 63.46 329.6 66.99 330.89 81.06"/><polyline class="cls-1" points="324.4 10.16 328.78 35.05 330.87 46.97 332.01 53.44 332.83 58.12 336.87 81.06"/><polyline class="cls-1" points="324.4 10.16 329.36 28.78 332.25 39.63 334 46.16 335.34 51.22 343.3 81.06"/><polyline class="cls-1" points="324.4 10.16 329.7 25.15 333.14 34.88 335.36 41.16 337.16 46.24 349.47 81.06"/><polyline class="cls-1" points="324.47 81.06 327.71 46.41 327.71 46.4 328.78 35.05 328.78 35.03 329.36 28.78 329.36 28.77 329.7 25.15 329.7 25.14 331.11 10.16"/><polyline class="cls-1" points="324.47 81.06 328.79 58.1 328.79 58.09 330.87 46.97 332.25 39.63 332.25 39.62 333.14 34.88 337.79 10.16"/><polyline class="cls-1" points="324.47 81.06 329.28 63.46 329.28 63.46 332.01 53.44 332.01 53.44 334 46.16 334 46.16 335.36 41.16 335.36 41.16 343.82 10.16"/><line class="cls-1" x1="350.23" y1="10.36" x2="324.47" y2="81.06"/><line class="cls-1" x1="323.68" y1="10.42" x2="394.63" y2="10.44"/><line class="cls-1" x1="323.78" y1="15.25" x2="394.63" y2="10.44"/><line class="cls-1" x1="324.45" y1="22.99" x2="394.63" y2="10.44"/><line class="cls-1" x1="324.4" y1="31.04" x2="394.63" y2="10.44"/><line class="cls-1" x1="323.68" y1="81.23" x2="394.63" y2="81.21"/><line class="cls-1" x1="323.78" y1="76.4" x2="394.63" y2="81.21"/><line class="cls-1" x1="324.45" y1="68.66" x2="394.63" y2="81.21"/><line class="cls-1" x1="324.4" y1="60.61" x2="394.63" y2="81.21"/><line class="cls-1" x1="323.79" y1="53.2" x2="394.5" y2="46.91"/><line class="cls-1" x1="324.51" y1="46.8" x2="394.5" y2="46.91"/><line class="cls-1" x1="324.56" y1="41.13" x2="394.5" y2="46.91"/><line class="cls-1" x1="324.51" y1="36.26" x2="394.5" y2="46.91"/><line class="cls-1" x1="82.49" y1="46.98" x2="117.87" y2="10.45"/><line class="cls-1" x1="82.46" y1="58.33" x2="117.87" y2="10.45"/><line class="cls-1" x1="82.6" y1="41.59" x2="117.87" y2="10.45"/><line class="cls-1" x1="82.46" y1="53.04" x2="117.87" y2="10.45"/><line class="cls-1" x1="82.49" y1="36.32" x2="117.87" y2="10.45"/><line class="cls-1" x1="82.6" y1="41.59" x2="117.87" y2="10.45"/><line class="cls-1" x1="82.48" y1="46.98" x2="118.15" y2="82.62"/><line class="cls-1" x1="82.44" y1="36.38" x2="118.15" y2="82.62"/><line class="cls-1" x1="82.59" y1="53.16" x2="118.15" y2="82.62"/><line class="cls-1" x1="82.44" y1="41.71" x2="118.15" y2="82.62"/><line class="cls-1" x1="82.48" y1="58.39" x2="118.09" y2="82.67"/><line class="cls-1" x1="153.15" y1="46.98" x2="117.77" y2="10.45"/><line class="cls-1" x1="153.18" y1="58.33" x2="117.77" y2="10.45"/><line class="cls-1" x1="153.04" y1="41.59" x2="117.77" y2="10.45"/><line class="cls-1" x1="153.18" y1="53.04" x2="117.77" y2="10.45"/><line class="cls-1" x1="153.15" y1="36.32" x2="117.77" y2="10.45"/><line class="cls-1" x1="153.04" y1="41.59" x2="117.77" y2="10.45"/><line class="cls-1" x1="153.16" y1="46.98" x2="117.49" y2="82.62"/><line class="cls-1" x1="153.2" y1="36.38" x2="117.49" y2="82.62"/><line class="cls-1" x1="153.05" y1="53.16" x2="117.49" y2="82.62"/><line class="cls-1" x1="153.2" y1="41.71" x2="117.49" y2="82.62"/><line class="cls-1" x1="153.16" y1="58.39" x2="117.56" y2="82.67"/><line class="cls-1" x1="559.44" y1="46.41" x2="594.81" y2="9.87"/><line class="cls-1" x1="559.4" y1="57.75" x2="594.81" y2="9.87"/><line class="cls-1" x1="559.55" y1="41.02" x2="594.81" y2="9.87"/><line class="cls-1" x1="559.4" y1="52.46" x2="594.81" y2="9.87"/><line class="cls-1" x1="559.44" y1="35.75" x2="594.81" y2="9.87"/><line class="cls-1" x1="559.55" y1="41.02" x2="594.81" y2="9.87"/><line class="cls-1" x1="559.42" y1="46.41" x2="595.09" y2="82.05"/><line class="cls-1" x1="559.39" y1="35.8" x2="595.09" y2="82.05"/><line class="cls-1" x1="559.53" y1="52.58" x2="595.09" y2="82.05"/><line class="cls-1" x1="559.39" y1="41.14" x2="595.09" y2="82.05"/><line class="cls-1" x1="559.42" y1="57.81" x2="595.03" y2="82.1"/><line class="cls-1" x1="630.09" y1="46.41" x2="594.72" y2="9.87"/><line class="cls-1" x1="630.13" y1="57.75" x2="594.72" y2="9.87"/><line class="cls-1" x1="629.98" y1="41.02" x2="594.72" y2="9.87"/><line class="cls-1" x1="630.13" y1="52.46" x2="594.72" y2="9.87"/><line class="cls-1" x1="630.09" y1="35.75" x2="594.72" y2="9.87"/><line class="cls-1" x1="629.98" y1="41.02" x2="594.72" y2="9.87"/><line class="cls-1" x1="630.11" y1="46.41" x2="594.44" y2="82.05"/><line class="cls-1" x1="630.14" y1="35.8" x2="594.44" y2="82.05"/><line class="cls-1" x1="630" y1="52.58" x2="594.44" y2="82.05"/><line class="cls-1" x1="630.14" y1="41.14" x2="594.44" y2="82.05"/><line class="cls-1" x1="630.11" y1="57.81" x2="594.5" y2="82.1"/><line class="cls-1" x1="168.41" y1="10.54" x2="164.01" y2="82.14"/><line class="cls-1" x1="172.8" y1="10.6" x2="164.02" y2="81.76"/><line class="cls-1" x1="177.22" y1="10.6" x2="164.02" y2="81.76"/><line class="cls-1" x1="181.77" y1="10.6" x2="164.02" y2="81.76"/><line class="cls-1" x1="164" y1="10.78" x2="164.02" y2="81.76"/><line class="cls-1" x1="235.33" y1="82.41" x2="235.21" y2="10.54"/><line class="cls-1" x1="228.99" y1="82.71" x2="235.2" y2="10.92"/><line class="cls-1" x1="222" y1="82.71" x2="235.2" y2="10.92"/><line class="cls-1" x1="213.78" y1="82.41" x2="235.2" y2="10.92"/><line class="cls-1" x1="235.22" y1="81.9" x2="235.2" y2="10.92"/><line class="cls-1" x1="164.03" y1="10.83" x2="235.33" y2="82.41"/><line class="cls-1" x1="164.03" y1="10.83" x2="228.99" y2="82.41"/><line class="cls-1" x1="164.03" y1="10.83" x2="222" y2="82.71"/><line class="cls-1" x1="164.03" y1="10.83" x2="213.46" y2="82.41"/><line class="cls-1" x1="432.67" y1="81.83" x2="441.93" y2="9.49"/><line class="cls-1" x1="450.52" y1="81.81" x2="441.83" y2="9.51"/><line class="cls-1" x1="436.48" y1="81.83" x2="441.93" y2="9.49"/><polyline class="cls-1" points="447.62 81.81 441.83 9.51 441.6 81.75"/><line class="cls-1" x1="405.24" y1="13.38" x2="478.19" y2="22.56"/><line class="cls-1" x1="405.24" y1="18.07" x2="478.19" y2="22.56"/><line class="cls-1" x1="477.73" y1="9.35" x2="405.28" y2="9.35"/><line class="cls-1" x1="477.73" y1="14.03" x2="405.28" y2="9.35"/><line class="cls-1" x1="477.73" y1="18.39" x2="405.28" y2="9.35"/><line class="cls-1" x1="477.73" y1="22.85" x2="405.28" y2="9.12"/><line class="cls-1" x1="478.19" y1="72.36" x2="405.24" y2="81.53"/><line class="cls-1" x1="478.19" y1="77.05" x2="405.24" y2="81.53"/><line class="cls-1" x1="405.7" y1="68.33" x2="478.15" y2="68.33"/><line class="cls-1" x1="405.7" y1="73" x2="478.15" y2="68.33"/><line class="cls-1" x1="405.7" y1="77.37" x2="478.15" y2="68.33"/><line class="cls-1" x1="405.7" y1="81.83" x2="478.15" y2="68.1"/><line class="cls-1" x1="478.19" y1="81.76" x2="405.24" y2="81.53"/><line class="cls-1" x1="487.86" y1="14.68" x2="558.83" y2="9.74"/><line class="cls-1" x1="488.97" y1="19.09" x2="558.83" y2="9.74"/><line class="cls-1" x1="490.11" y1="23.67" x2="558.83" y2="9.74"/><line class="cls-1" x1="491.18" y1="27.94" x2="558.83" y2="9.74"/><line class="cls-1" x1="558.83" y1="9.74" x2="486.69" y2="9.79"/><line class="cls-1" x1="557.71" y1="14.68" x2="486.69" y2="9.79"/><line class="cls-1" x1="556.5" y1="19.44" x2="486.69" y2="9.79"/><line class="cls-1" x1="555.45" y1="23.59" x2="486.69" y2="9.79"/><line class="cls-1" x1="554.35" y1="27.92" x2="486.69" y2="9.79"/><line class="cls-1" x1="513.9" y1="9.39" x2="523.13" y2="81.69"/><line class="cls-1" x1="533.02" y1="9.31" x2="523.13" y2="81.69"/><line class="cls-1" x1="513.87" y1="81.69" x2="523.1" y2="19.36"/><line class="cls-1" x1="531.65" y1="81.67" x2="523" y2="19.38"/><line class="cls-1" x1="523.13" y1="81.69" x2="523" y2="9.77"/><line class="cls-1" x1="517.67" y1="81.69" x2="523.1" y2="19.36"/><line class="cls-1" x1="528.76" y1="81.67" x2="523" y2="19.38"/></svg>