<svg id="Camada_1" data-name="Camada 1" xmlns="http://www.w3.org/2000/svg" viewBox="0 0 389.59 83.47"><defs><style>.cls-1{fill:none;stroke:#1d1d1b;stroke-miterlimit:10;stroke-width:0.5px;}</style></defs><line class="cls-1" x1="70.69" y1="18.58" x2="7.78" y2="4.93"/><line class="cls-1" x1="66.28" y1="14.01" x2="7.78" y2="4.93"/><line class="cls-1" x1="75.35" y1="23.08" x2="7.78" y2="4.93"/><line class="cls-1" x1="57.22" y1="5" x2="7.78" y2="4.93"/><line class="cls-1" x1="70.75" y1="67.97" x2="7.78" y2="77.13"/><line class="cls-1" x1="79.75" y1="58.8" x2="7.78" y2="77.13"/><line class="cls-1" x1="66.21" y1="72.56" x2="7.78" y2="77.13"/><line class="cls-1" x1="75.41" y1="63.57" x2="7.78" y2="77.13"/><line class="cls-1" x1="61.81" y1="77.06" x2="7.78" y2="77.13"/><line class="cls-1" x1="12.4" y1="5.14" x2="7.76" y2="77.09"/><line class="cls-1" x1="16.74" y1="5.14" x2="7.76" y2="77.09"/><line class="cls-1" x1="21.39" y1="5.14" x2="7.76" y2="77.09"/><line class="cls-1" x1="25.88" y1="5.05" x2="7.76" y2="77.09"/><line class="cls-1" x1="12.6" y1="77.04" x2="7.95" y2="5.1"/><line class="cls-1" x1="16.93" y1="77.04" x2="7.95" y2="5.1"/><line class="cls-1" x1="21.59" y1="77.04" x2="7.95" y2="5.1"/><line class="cls-1" x1="26.08" y1="77.14" x2="7.95" y2="5.1"/><line class="cls-1" x1="79.81" y1="41.07" x2="25.77" y2="5.1"/><line class="cls-1" x1="79.88" y1="49.98" x2="25.77" y2="5.1"/><line class="cls-1" x1="79.61" y1="36.38" x2="25.77" y2="5.1"/><line class="cls-1" x1="79.88" y1="45.64" x2="25.77" y2="5.1"/><line class="cls-1" x1="79.81" y1="32.11" x2="25.88" y2="5.05"/><line class="cls-1" x1="79.81" y1="32.11" x2="7.78" y2="4.93"/><line class="cls-1" x1="79.61" y1="36.38" x2="7.78" y2="4.93"/><line class="cls-1" x1="61.81" y1="9.47" x2="7.78" y2="4.93"/><line class="cls-1" x1="79.84" y1="41.07" x2="25.79" y2="77.04"/><line class="cls-1" x1="79.9" y1="32.16" x2="25.79" y2="77.04"/><line class="cls-1" x1="79.64" y1="45.76" x2="25.79" y2="77.04"/><line class="cls-1" x1="79.9" y1="36.5" x2="25.79" y2="77.04"/><line class="cls-1" x1="79.84" y1="50.04" x2="25.91" y2="77.09"/><line class="cls-1" x1="342.09" y1="44.67" x2="308.69" y2="16.47"/><line class="cls-1" x1="342.09" y1="44.67" x2="312.63" y2="12.72"/><polyline class="cls-1" points="319.64 10.12 335.35 34.29 336.44 35.96 342.1 44.67"/><polyline class="cls-1" points="328.71 8.11 338.81 35.71 338.82 35.71 339.42 37.36 342.1 44.67"/><line class="cls-1" x1="381.56" y1="5.44" x2="313.89" y2="10.12"/><line class="cls-1" x1="381.56" y1="5.44" x2="309.44" y2="15.07"/><line class="cls-1" x1="381.56" y1="5.44" x2="310.44" y2="21.75"/><line class="cls-1" x1="381.56" y1="5.44" x2="314.69" y2="25.72"/><polyline class="cls-1" points="338.81 35.71 338.82 35.71 338.93 35.76 338.96 35.77 338.99 35.79 339.04 35.8 371.46 49.15"/><line class="cls-1" x1="376.58" y1="56.77" x2="341.99" y2="38.56"/><line class="cls-1" x1="375.45" y1="61.65" x2="351.59" y2="47.52"/><polyline class="cls-1" points="376.1 66.97 361.28 56.55 361.27 56.55"/><polyline class="cls-1" points="338.9 35.68 339.04 35.8 341.99 38.56 351.59 47.52 361.27 56.55 361.28 56.55 375.15 69.5"/><polyline class="cls-1" points="338.9 35.68 338.99 35.79 340.97 38.09 346.52 44.54 351.07 49.82 371.22 73.24"/><polyline class="cls-1" points="338.9 35.68 338.96 35.77 340.19 37.72 343.28 42.63 345.5 46.15 364.2 75.85"/><polyline class="cls-1" points="338.9 35.68 338.93 35.76 339.57 37.44 339.58 37.44 341.08 41.34 342.06 43.89 355.13 77.86"/><line class="cls-1" x1="306.88" y1="61.65" x2="355.14" y2="77.86"/><line class="cls-1" x1="306.88" y1="61.65" x2="364.2" y2="75.85"/><line class="cls-1" x1="306.88" y1="61.65" x2="371.22" y2="73.24"/><line class="cls-1" x1="306.88" y1="61.65" x2="375.45" y2="69.5"/><line class="cls-1" x1="156.81" y1="77.45" x2="133.83" y2="5.23"/><line class="cls-1" x1="151.93" y1="77.45" x2="133.71" y2="4.96"/><line class="cls-1" x1="147.48" y1="77.45" x2="133.71" y2="4.96"/><line class="cls-1" x1="160.98" y1="77.45" x2="133.83" y2="5.23"/><line class="cls-1" x1="161.26" y1="77.45" x2="114.45" y2="9.11"/><line class="cls-1" x1="161.26" y1="77.45" x2="119.14" y2="4.96"/><line class="cls-1" x1="161.26" y1="77.45" x2="124.68" y2="4.96"/><line class="cls-1" x1="93.22" y1="77.45" x2="116.19" y2="5.23"/><line class="cls-1" x1="98.09" y1="77.45" x2="116.32" y2="4.96"/><line class="cls-1" x1="102.54" y1="77.45" x2="116.32" y2="4.96"/><line class="cls-1" x1="89.04" y1="77.45" x2="116.19" y2="5.23"/><line class="cls-1" x1="88.77" y1="77.45" x2="134.62" y2="8.59"/><line class="cls-1" x1="88.77" y1="77.45" x2="131.33" y2="5.23"/><line class="cls-1" x1="88.77" y1="77.45" x2="125.34" y2="4.96"/><line class="cls-1" x1="161.53" y1="49.69" x2="89.15" y2="49.69"/><line class="cls-1" x1="161.53" y1="44.99" x2="89.15" y2="49.69"/><line class="cls-1" x1="161.53" y1="40.6" x2="89.15" y2="49.69"/><line class="cls-1" x1="161.53" y1="35.89" x2="89.15" y2="49.69"/><line class="cls-1" x1="300.76" y1="77.76" x2="277.79" y2="5.54"/><line class="cls-1" x1="295.89" y1="77.76" x2="277.66" y2="5.27"/><line class="cls-1" x1="291.44" y1="77.76" x2="277.66" y2="5.27"/><line class="cls-1" x1="304.93" y1="77.76" x2="277.79" y2="5.54"/><line class="cls-1" x1="305.21" y1="77.76" x2="258.4" y2="9.42"/><line class="cls-1" x1="305.21" y1="77.76" x2="263.09" y2="5.27"/><line class="cls-1" x1="305.21" y1="77.76" x2="268.63" y2="5.27"/><line class="cls-1" x1="237.17" y1="77.76" x2="260.14" y2="5.54"/><line class="cls-1" x1="242.04" y1="77.76" x2="260.27" y2="5.27"/><line class="cls-1" x1="246.49" y1="77.76" x2="260.27" y2="5.27"/><line class="cls-1" x1="233" y1="77.76" x2="260.14" y2="5.54"/><line class="cls-1" x1="232.72" y1="77.76" x2="278.57" y2="8.9"/><line class="cls-1" x1="232.72" y1="77.76" x2="275.29" y2="5.54"/><line class="cls-1" x1="232.72" y1="77.76" x2="269.3" y2="5.27"/><line class="cls-1" x1="305.49" y1="50" x2="233.1" y2="50"/><line class="cls-1" x1="305.49" y1="45.3" x2="233.1" y2="50"/><line class="cls-1" x1="305.49" y1="40.91" x2="233.1" y2="50"/><line class="cls-1" x1="305.49" y1="36.2" x2="233.1" y2="50"/><line class="cls-1" x1="166.37" y1="10.59" x2="237.17" y2="5.67"/><line class="cls-1" x1="167.47" y1="14.99" x2="237.17" y2="5.67"/><line class="cls-1" x1="168.62" y1="19.56" x2="237.17" y2="5.67"/><line class="cls-1" x1="169.68" y1="23.82" x2="237.17" y2="5.67"/><line class="cls-1" x1="237.17" y1="5.67" x2="165.2" y2="5.72"/><line class="cls-1" x1="236.05" y1="10.6" x2="165.2" y2="5.72"/><line class="cls-1" x1="234.84" y1="15.34" x2="165.2" y2="5.72"/><line class="cls-1" x1="233.79" y1="19.49" x2="165.2" y2="5.72"/><line class="cls-1" x1="232.69" y1="23.81" x2="165.2" y2="5.72"/><line class="cls-1" x1="192.34" y1="5.32" x2="201.56" y2="77.44"/><line class="cls-1" x1="211.41" y1="5.24" x2="201.56" y2="77.44"/><line class="cls-1" x1="192.32" y1="77.44" x2="201.52" y2="15.26"/><line class="cls-1" x1="210.05" y1="77.42" x2="201.42" y2="15.28"/><line class="cls-1" x1="201.56" y1="77.44" x2="201.42" y2="5.69"/><line class="cls-1" x1="196.11" y1="77.44" x2="201.52" y2="15.26"/><line class="cls-1" x1="207.17" y1="77.42" x2="201.42" y2="15.28"/></svg>