<svg xmlns="http://www.w3.org/2000/svg" viewBox="0 0 730.17 189.96"><defs><style>.cls-1{fill:none;stroke:#fff;stroke-miterlimit:10;stroke-width:0.75px;}</style></defs><g id="Camada_6" data-name="Camada 6"><line class="cls-1" x1="210.11" y1="169.02" x2="200.26" y2="23.33"/><line class="cls-1" x1="218.91" y1="166.75" x2="200.26" y2="23.33"/><line class="cls-1" x1="228.05" y1="164.4" x2="200.26" y2="23.33"/><line class="cls-1" x1="236.57" y1="162.2" x2="200.26" y2="23.33"/><line class="cls-1" x1="200.26" y1="23.33" x2="200.37" y2="171.42"/><line class="cls-1" x1="210.12" y1="25.64" x2="200.37" y2="171.42"/><line class="cls-1" x1="219.6" y1="28.12" x2="200.37" y2="171.42"/><line class="cls-1" x1="227.9" y1="30.28" x2="200.37" y2="171.42"/><line class="cls-1" x1="236.54" y1="32.54" x2="200.37" y2="171.42"/><line class="cls-1" x1="200.28" y1="60.72" x2="344.3" y2="60.67"/><line class="cls-1" x1="200.47" y1="50.47" x2="344.3" y2="60.67"/><line class="cls-1" x1="200.47" y1="41.66" x2="344.3" y2="60.67"/><line class="cls-1" x1="200.47" y1="32.2" x2="344.3" y2="60.67"/><line class="cls-1" x1="200.28" y1="23.07" x2="344.3" y2="60.67"/><line class="cls-1" x1="200.31" y1="134.4" x2="344.33" y2="134.45"/><line class="cls-1" x1="200.51" y1="144.51" x2="344.33" y2="134.45"/><line class="cls-1" x1="200.51" y1="153.2" x2="344.33" y2="134.45"/><line class="cls-1" x1="200.51" y1="162.53" x2="344.33" y2="134.45"/><line class="cls-1" x1="200.31" y1="171.54" x2="344.33" y2="134.45"/><line class="cls-1" x1="344.24" y1="50.61" x2="229.15" y2="60.76"/><line class="cls-1" x1="344.24" y1="41.84" x2="229.15" y2="60.76"/><line class="cls-1" x1="344.24" y1="32.42" x2="229.15" y2="60.76"/><line class="cls-1" x1="344.4" y1="23.33" x2="229.15" y2="60.76"/><line class="cls-1" x1="344.24" y1="143.98" x2="229.15" y2="133.84"/><line class="cls-1" x1="344.24" y1="152.76" x2="229.15" y2="133.84"/><line class="cls-1" x1="344.24" y1="162.18" x2="229.15" y2="133.84"/><line class="cls-1" x1="344.4" y1="171.26" x2="229.15" y2="133.84"/><line class="cls-1" x1="502.77" y1="50.15" x2="376.95" y2="22.19"/><line class="cls-1" x1="493.96" y1="40.79" x2="376.95" y2="22.19"/><line class="cls-1" x1="512.09" y1="59.39" x2="376.95" y2="22.19"/><line class="cls-1" x1="475.83" y1="22.32" x2="376.95" y2="22.19"/><line class="cls-1" x1="502.9" y1="151.36" x2="376.95" y2="170.14"/><line class="cls-1" x1="520.9" y1="132.58" x2="376.95" y2="170.14"/><line class="cls-1" x1="493.81" y1="160.78" x2="376.95" y2="170.14"/><line class="cls-1" x1="512.22" y1="142.36" x2="376.95" y2="170.14"/><line class="cls-1" x1="502.02" y1="169.99" x2="393.95" y2="170.14"/><line class="cls-1" x1="386.21" y1="22.63" x2="376.91" y2="170.06"/><line class="cls-1" x1="394.87" y1="22.63" x2="376.91" y2="170.06"/><line class="cls-1" x1="404.18" y1="22.63" x2="376.91" y2="170.06"/><line class="cls-1" x1="413.16" y1="22.43" x2="376.91" y2="170.06"/><line class="cls-1" x1="377.3" y1="169.96" x2="377.3" y2="22.53"/><line class="cls-1" x1="386.6" y1="169.96" x2="377.3" y2="22.53"/><line class="cls-1" x1="395.26" y1="169.96" x2="377.3" y2="22.53"/><line class="cls-1" x1="404.57" y1="169.96" x2="377.3" y2="22.53"/><line class="cls-1" x1="413.55" y1="170.16" x2="377.3" y2="22.53"/><line class="cls-1" x1="521.02" y1="96.25" x2="412.93" y2="22.53"/><line class="cls-1" x1="521.15" y1="114.5" x2="412.93" y2="22.53"/><line class="cls-1" x1="520.62" y1="86.64" x2="412.93" y2="22.53"/><line class="cls-1" x1="521.15" y1="105.6" x2="412.93" y2="22.53"/><line class="cls-1" x1="521.02" y1="77.88" x2="413.16" y2="22.43"/><line class="cls-1" x1="521.02" y1="77.88" x2="376.95" y2="22.19"/><line class="cls-1" x1="520.62" y1="86.64" x2="376.95" y2="22.19"/><line class="cls-1" x1="485.02" y1="31.49" x2="376.95" y2="22.19"/><line class="cls-1" x1="521.07" y1="96.25" x2="412.98" y2="169.96"/><line class="cls-1" x1="521.2" y1="77.99" x2="412.98" y2="169.96"/><line class="cls-1" x1="520.67" y1="105.85" x2="412.98" y2="169.96"/><line class="cls-1" x1="521.2" y1="86.89" x2="412.98" y2="169.96"/><line class="cls-1" x1="521.07" y1="114.61" x2="413.21" y2="170.06"/><line class="cls-1" x1="559.24" y1="26.15" x2="613.11" y2="97.5"/><line class="cls-1" x1="559.24" y1="26.15" x2="622.05" y2="97.5"/><line class="cls-1" x1="559.24" y1="26.15" x2="649.25" y2="97.99"/><line class="cls-1" x1="559.24" y1="26.15" x2="640.09" y2="97.87"/><line class="cls-1" x1="703.49" y1="26.15" x2="649.25" y2="97.99"/><line class="cls-1" x1="703.49" y1="26.15" x2="640.09" y2="97.87"/><line class="cls-1" x1="703.49" y1="26.15" x2="612.61" y2="97.5"/><line class="cls-1" x1="703.49" y1="26.15" x2="622.29" y2="97.63"/><line class="cls-1" x1="559.24" y1="26.15" x2="630.86" y2="97.79"/><line class="cls-1" x1="703.49" y1="26.15" x2="630.86" y2="97.79"/><line class="cls-1" x1="568.17" y1="25.67" x2="559.26" y2="170.45"/><line class="cls-1" x1="577.05" y1="25.79" x2="559.29" y2="169.68"/><line class="cls-1" x1="585.98" y1="25.79" x2="559.29" y2="169.68"/><line class="cls-1" x1="595.17" y1="25.79" x2="559.29" y2="169.68"/><line class="cls-1" x1="559.24" y1="26.15" x2="559.29" y2="169.68"/><line class="cls-1" x1="694.1" y1="25.67" x2="703" y2="170.45"/><line class="cls-1" x1="685.22" y1="25.79" x2="702.98" y2="169.68"/><line class="cls-1" x1="676.28" y1="25.79" x2="702.98" y2="169.68"/><line class="cls-1" x1="667.09" y1="25.79" x2="702.98" y2="169.68"/><line class="cls-1" x1="703.03" y1="26.15" x2="702.98" y2="169.68"/><line class="cls-1" x1="568.19" y1="170.26" x2="559.29" y2="25.48"/><line class="cls-1" x1="577.07" y1="170.14" x2="559.31" y2="26.25"/><line class="cls-1" x1="586.01" y1="170.14" x2="559.31" y2="26.25"/><line class="cls-1" x1="595.2" y1="170.14" x2="559.31" y2="26.25"/><line class="cls-1" x1="694.07" y1="170.98" x2="702.98" y2="26.2"/><line class="cls-1" x1="685.19" y1="170.86" x2="702.95" y2="26.97"/><line class="cls-1" x1="676.26" y1="170.86" x2="702.95" y2="26.97"/><line class="cls-1" x1="667.07" y1="170.86" x2="702.95" y2="26.97"/><line class="cls-1" x1="39.27" y1="54.86" x2="165.09" y2="27.57"/><line class="cls-1" x1="48.08" y1="45.72" x2="165.09" y2="27.57"/><line class="cls-1" x1="29.95" y1="63.88" x2="165.09" y2="27.57"/><line class="cls-1" x1="66.2" y1="27.7" x2="165.09" y2="27.57"/><line class="cls-1" x1="39.14" y1="153.64" x2="165.09" y2="171.97"/><line class="cls-1" x1="21.14" y1="135.31" x2="165.09" y2="171.97"/><line class="cls-1" x1="48.23" y1="162.84" x2="165.09" y2="171.97"/><line class="cls-1" x1="29.82" y1="144.86" x2="165.09" y2="171.97"/><line class="cls-1" x1="57.01" y1="171.83" x2="165.09" y2="171.97"/><line class="cls-1" x1="21.01" y1="99.85" x2="129.1" y2="27.9"/><line class="cls-1" x1="20.89" y1="117.67" x2="129.1" y2="27.9"/><line class="cls-1" x1="21.42" y1="90.48" x2="129.1" y2="27.9"/><line class="cls-1" x1="20.89" y1="108.99" x2="129.1" y2="27.9"/><line class="cls-1" x1="21.01" y1="81.92" x2="128.88" y2="27.81"/><line class="cls-1" x1="21.01" y1="81.92" x2="165.09" y2="27.57"/><line class="cls-1" x1="21.42" y1="90.48" x2="165.09" y2="27.57"/><line class="cls-1" x1="57.01" y1="36.65" x2="165.09" y2="27.57"/><line class="cls-1" x1="20.96" y1="99.85" x2="129.05" y2="171.8"/><line class="cls-1" x1="20.84" y1="82.04" x2="129.05" y2="171.8"/><line class="cls-1" x1="21.37" y1="109.23" x2="129.05" y2="171.8"/><line class="cls-1" x1="20.84" y1="90.72" x2="129.05" y2="171.8"/><line class="cls-1" x1="20.96" y1="117.78" x2="128.83" y2="171.9"/></g></svg>