<svg id="Camada_1" data-name="Camada 1" xmlns="http://www.w3.org/2000/svg" viewBox="0 0 634.2 88"><defs><style>.cls-1,.cls-2{fill:none;stroke:#fff;stroke-miterlimit:10;}.cls-1{stroke-width:0.5px;}</style></defs><line class="cls-1" x1="470.66" y1="83.17" x2="398.51" y2="41.08"/><line class="cls-1" x1="470.66" y1="83.17" x2="398.51" y2="46.27"/><line class="cls-1" x1="470.66" y1="83.17" x2="398.55" y2="50.98"/><line class="cls-1" x1="470.66" y1="83.17" x2="398.56" y2="55.89"/><line class="cls-1" x1="404.88" y1="12.22" x2="398.78" y2="83.84"/><line class="cls-1" x1="410.57" y1="12.22" x2="398.78" y2="83.84"/><line class="cls-1" x1="416.69" y1="12.22" x2="398.78" y2="83.84"/><line class="cls-1" x1="422.59" y1="12.12" x2="398.78" y2="83.84"/><line class="cls-1" x1="399.03" y1="83.8" x2="399.03" y2="12.17"/><line class="cls-1" x1="405.14" y1="83.8" x2="399.03" y2="12.17"/><line class="cls-1" x1="410.83" y1="83.8" x2="399.03" y2="12.17"/><line class="cls-1" x1="416.94" y1="83.8" x2="399.03" y2="12.17"/><line class="cls-1" x1="422.84" y1="83.89" x2="399.03" y2="12.17"/><polygon class="cls-2" points="426.2 56.95 426.06 56.81 470.36 34.52 470.5 34.66 426.2 56.95"/><polygon class="cls-2" points="426.21 56.94 426.05 56.82 470.41 28.99 470.57 29.11 426.21 56.94"/><polygon class="cls-2" points="426.3 56.98 426.19 56.84 470.37 40.1 470.48 40.24 426.3 56.98"/><polygon class="cls-2" points="398.75 12.17 398.71 12.32 461.28 18.02 461.31 17.87 398.75 12.17"/><polygon class="cls-2" points="398.76 12.17 398.7 12.32 470.21 23.72 470.27 23.57 398.76 12.17"/><polygon class="cls-2" points="398.73 12.17 398.73 12.32 452.42 12.37 452.42 12.21 398.73 12.17"/><polygon class="cls-2" points="426.1 12.32 425.96 12.45 470.26 34.74 470.39 34.61 426.1 12.32"/><polygon class="cls-2" points="426.11 12.32 425.95 12.45 470.31 40.28 470.47 40.16 426.11 12.32"/><polygon class="cls-2" points="426.2 12.29 426.09 12.42 470.27 29.17 470.38 29.03 426.2 12.29"/><polyline class="cls-1" points="477.61 10.54 481.01 47.71 482.11 59.71 482.61 65.21 482.94 68.83 484.26 83.27"/><polyline class="cls-1" points="477.61 10.54 482.1 36.07 484.25 48.3 485.42 54.94 486.26 59.73 490.4 83.27"/><polyline class="cls-1" points="477.61 10.54 482.7 29.64 485.67 40.77 487.45 47.47 488.83 52.66 496.99 83.27"/><polyline class="cls-1" points="477.61 10.54 483.05 25.92 486.58 35.9 488.85 42.34 490.7 47.55 503.32 83.27"/><polyline class="cls-1" points="477.68 83.27 481.01 47.73 481.01 47.71 482.1 36.07 482.1 36.06 482.7 29.64 482.7 29.64 483.05 25.92 483.05 25.91 484.49 10.54"/><polyline class="cls-1" points="477.68 83.27 482.11 59.71 482.11 59.7 484.25 48.3 485.67 40.77 485.67 40.76 486.58 35.9 491.34 10.54"/><polyline class="cls-1" points="477.68 83.27 482.61 65.21 482.61 65.21 485.42 54.94 485.42 54.93 487.45 47.47 487.45 47.47 488.85 42.34 488.85 42.34 497.53 10.54"/><line class="cls-1" x1="504.1" y1="10.75" x2="477.69" y2="83.26"/><line class="cls-1" x1="476.87" y1="10.81" x2="549.64" y2="10.83"/><line class="cls-1" x1="476.97" y1="15.77" x2="549.64" y2="10.83"/><line class="cls-1" x1="477.66" y1="23.7" x2="549.64" y2="10.83"/><line class="cls-1" x1="477.61" y1="31.96" x2="549.64" y2="10.83"/><line class="cls-1" x1="476.87" y1="83.44" x2="549.64" y2="83.42"/><line class="cls-1" x1="476.97" y1="78.48" x2="549.64" y2="83.42"/><line class="cls-1" x1="477.66" y1="70.55" x2="549.64" y2="83.42"/><line class="cls-1" x1="477.61" y1="62.29" x2="549.64" y2="83.42"/><line class="cls-1" x1="476.98" y1="54.69" x2="549.51" y2="48.23"/><line class="cls-1" x1="477.72" y1="48.12" x2="549.51" y2="48.23"/><line class="cls-1" x1="477.77" y1="42.31" x2="549.51" y2="48.23"/><line class="cls-1" x1="477.72" y1="37.31" x2="549.51" y2="48.23"/><line class="cls-1" x1="306.11" y1="23.36" x2="243.2" y2="9.71"/><line class="cls-1" x1="301.7" y1="18.79" x2="243.2" y2="9.71"/><line class="cls-1" x1="310.77" y1="27.86" x2="243.2" y2="9.71"/><line class="cls-1" x1="292.64" y1="9.78" x2="243.2" y2="9.71"/><line class="cls-1" x1="306.17" y1="72.75" x2="243.2" y2="81.91"/><line class="cls-1" x1="315.17" y1="63.58" x2="243.2" y2="81.91"/><line class="cls-1" x1="301.63" y1="77.34" x2="243.2" y2="81.91"/><line class="cls-1" x1="310.83" y1="68.35" x2="243.2" y2="81.91"/><line class="cls-1" x1="297.23" y1="81.84" x2="243.2" y2="81.91"/><line class="cls-1" x1="247.82" y1="9.93" x2="243.18" y2="81.87"/><line class="cls-1" x1="252.16" y1="9.93" x2="243.18" y2="81.87"/><line class="cls-1" x1="256.81" y1="9.93" x2="243.18" y2="81.87"/><line class="cls-1" x1="261.3" y1="9.83" x2="243.18" y2="81.87"/><line class="cls-1" x1="248.02" y1="81.83" x2="243.37" y2="9.88"/><line class="cls-1" x1="252.35" y1="81.83" x2="243.37" y2="9.88"/><line class="cls-1" x1="257.01" y1="81.83" x2="243.37" y2="9.88"/><line class="cls-1" x1="261.5" y1="81.92" x2="243.37" y2="9.88"/><line class="cls-1" x1="315.23" y1="45.85" x2="261.19" y2="9.88"/><line class="cls-1" x1="315.3" y1="54.76" x2="261.19" y2="9.88"/><line class="cls-1" x1="315.03" y1="41.16" x2="261.19" y2="9.88"/><line class="cls-1" x1="315.3" y1="50.42" x2="261.19" y2="9.88"/><line class="cls-1" x1="315.23" y1="36.89" x2="261.3" y2="9.83"/><line class="cls-1" x1="315.23" y1="36.89" x2="243.2" y2="9.71"/><line class="cls-1" x1="315.03" y1="41.16" x2="243.2" y2="9.71"/><line class="cls-1" x1="297.23" y1="14.25" x2="243.2" y2="9.71"/><line class="cls-1" x1="315.26" y1="45.85" x2="261.21" y2="81.83"/><line class="cls-1" x1="315.32" y1="36.94" x2="261.21" y2="81.83"/><line class="cls-1" x1="315.06" y1="50.54" x2="261.21" y2="81.83"/><line class="cls-1" x1="315.32" y1="41.28" x2="261.21" y2="81.83"/><line class="cls-1" x1="315.26" y1="54.82" x2="261.33" y2="81.87"/><line class="cls-1" x1="585.93" y1="50.17" x2="552.53" y2="21.97"/><line class="cls-1" x1="585.93" y1="50.17" x2="556.46" y2="18.22"/><polyline class="cls-1" points="563.48 15.62 579.18 39.79 580.27 41.46 585.93 50.18"/><polyline class="cls-1" points="572.55 13.61 582.65 41.21 582.65 41.21 583.26 42.86 585.93 50.18"/><line class="cls-1" x1="625.39" y1="10.94" x2="557.73" y2="15.62"/><line class="cls-1" x1="625.39" y1="10.94" x2="553.28" y2="20.57"/><line class="cls-1" x1="625.39" y1="10.94" x2="554.28" y2="27.25"/><line class="cls-1" x1="625.39" y1="10.94" x2="558.53" y2="31.22"/><polyline class="cls-1" points="582.65 41.21 582.65 41.21 582.77 41.26 582.8 41.27 582.83 41.29 582.87 41.3 615.3 54.65"/><line class="cls-1" x1="620.42" y1="62.27" x2="585.83" y2="44.06"/><line class="cls-1" x1="619.29" y1="67.15" x2="595.43" y2="53.02"/><polyline class="cls-1" points="619.93 72.47 605.12 62.05 605.11 62.05"/><polyline class="cls-1" points="582.74 41.18 582.87 41.3 585.83 44.06 595.43 53.02 605.11 62.05 605.12 62.05 618.99 75"/><polyline class="cls-1" points="582.74 41.18 582.83 41.29 584.81 43.59 590.36 50.04 594.91 55.33 615.05 78.74"/><polyline class="cls-1" points="582.74 41.18 582.8 41.27 584.02 43.22 587.12 48.13 589.34 51.65 608.04 81.35"/><polyline class="cls-1" points="582.74 41.18 582.77 41.26 583.41 42.94 583.42 42.94 584.92 46.84 585.9 49.39 598.97 83.36"/><line class="cls-1" x1="550.72" y1="67.15" x2="598.97" y2="83.36"/><line class="cls-1" x1="550.72" y1="67.15" x2="608.04" y2="81.35"/><line class="cls-1" x1="550.72" y1="67.15" x2="615.05" y2="78.74"/><line class="cls-1" x1="550.72" y1="67.15" x2="619.29" y2="75"/><line class="cls-1" x1="7.84" y1="46.67" x2="43.21" y2="10.14"/><line class="cls-1" x1="7.8" y1="58.02" x2="43.21" y2="10.14"/><line class="cls-1" x1="7.95" y1="41.28" x2="43.21" y2="10.14"/><line class="cls-1" x1="7.8" y1="52.73" x2="43.21" y2="10.14"/><line class="cls-1" x1="7.84" y1="36.01" x2="43.21" y2="10.14"/><line class="cls-1" x1="7.95" y1="41.28" x2="43.21" y2="10.14"/><line class="cls-1" x1="7.82" y1="46.67" x2="43.49" y2="82.31"/><line class="cls-1" x1="7.79" y1="36.07" x2="43.49" y2="82.31"/><line class="cls-1" x1="7.93" y1="52.85" x2="43.49" y2="82.31"/><line class="cls-1" x1="7.79" y1="41.4" x2="43.49" y2="82.31"/><line class="cls-1" x1="7.82" y1="58.08" x2="43.43" y2="82.36"/><line class="cls-1" x1="78.49" y1="46.67" x2="43.12" y2="10.14"/><line class="cls-1" x1="78.53" y1="58.02" x2="43.12" y2="10.14"/><line class="cls-1" x1="78.38" y1="41.28" x2="43.12" y2="10.14"/><line class="cls-1" x1="78.53" y1="52.73" x2="43.12" y2="10.14"/><line class="cls-1" x1="78.49" y1="36.01" x2="43.12" y2="10.14"/><line class="cls-1" x1="78.38" y1="41.28" x2="43.12" y2="10.14"/><line class="cls-1" x1="78.51" y1="46.67" x2="42.84" y2="82.31"/><line class="cls-1" x1="78.54" y1="36.07" x2="42.84" y2="82.31"/><line class="cls-1" x1="78.4" y1="52.85" x2="42.84" y2="82.31"/><line class="cls-1" x1="78.54" y1="41.4" x2="42.84" y2="82.31"/><line class="cls-1" x1="78.51" y1="58.08" x2="42.9" y2="82.36"/><line class="cls-1" x1="321.59" y1="45.96" x2="356.96" y2="9.42"/><line class="cls-1" x1="321.55" y1="57.3" x2="356.96" y2="9.42"/><line class="cls-1" x1="321.7" y1="40.56" x2="356.96" y2="9.42"/><line class="cls-1" x1="321.55" y1="52.01" x2="356.96" y2="9.42"/><line class="cls-1" x1="321.59" y1="35.29" x2="356.96" y2="9.42"/><line class="cls-1" x1="321.7" y1="40.56" x2="356.96" y2="9.42"/><line class="cls-1" x1="321.57" y1="45.96" x2="357.24" y2="81.6"/><line class="cls-1" x1="321.54" y1="35.35" x2="357.24" y2="81.6"/><line class="cls-1" x1="321.68" y1="52.13" x2="357.24" y2="81.6"/><line class="cls-1" x1="321.54" y1="40.68" x2="357.24" y2="81.6"/><line class="cls-1" x1="321.57" y1="57.36" x2="357.18" y2="81.65"/><line class="cls-1" x1="392.24" y1="45.96" x2="356.86" y2="9.42"/><line class="cls-1" x1="392.28" y1="57.3" x2="356.86" y2="9.42"/><line class="cls-1" x1="392.13" y1="40.56" x2="356.86" y2="9.42"/><line class="cls-1" x1="392.28" y1="52.01" x2="356.86" y2="9.42"/><line class="cls-1" x1="392.24" y1="35.29" x2="356.86" y2="9.42"/><line class="cls-1" x1="392.13" y1="40.56" x2="356.86" y2="9.42"/><line class="cls-1" x1="392.26" y1="45.96" x2="356.59" y2="81.6"/><line class="cls-1" x1="392.29" y1="35.35" x2="356.59" y2="81.6"/><line class="cls-1" x1="392.15" y1="52.13" x2="356.59" y2="81.6"/><line class="cls-1" x1="392.29" y1="40.68" x2="356.59" y2="81.6"/><line class="cls-1" x1="392.26" y1="57.36" x2="356.65" y2="81.65"/><line class="cls-1" x1="157.98" y1="81.76" x2="86.91" y2="40.31"/><line class="cls-1" x1="157.98" y1="81.76" x2="86.92" y2="45.42"/><line class="cls-1" x1="157.98" y1="81.76" x2="86.96" y2="50.06"/><line class="cls-1" x1="157.98" y1="81.76" x2="86.97" y2="54.89"/><line class="cls-1" x1="93.19" y1="11.87" x2="87.18" y2="82.43"/><line class="cls-1" x1="98.8" y1="11.87" x2="87.18" y2="82.43"/><line class="cls-1" x1="104.82" y1="11.87" x2="87.18" y2="82.43"/><line class="cls-1" x1="110.63" y1="11.78" x2="87.18" y2="82.43"/><line class="cls-1" x1="87.43" y1="82.38" x2="87.43" y2="11.83"/><line class="cls-1" x1="93.44" y1="82.38" x2="87.43" y2="11.83"/><line class="cls-1" x1="99.05" y1="82.38" x2="87.43" y2="11.83"/><line class="cls-1" x1="105.07" y1="82.38" x2="87.43" y2="11.83"/><line class="cls-1" x1="110.88" y1="82.47" x2="87.43" y2="11.83"/><polygon class="cls-2" points="114.19 55.93 114.05 55.8 157.68 33.85 157.82 33.98 114.19 55.93"/><polygon class="cls-2" points="114.2 55.93 114.04 55.81 157.74 28.4 157.89 28.51 114.2 55.93"/><polygon class="cls-2" points="114.29 55.97 114.18 55.83 157.7 39.34 157.81 39.47 114.29 55.97"/><polygon class="cls-2" points="87.15 11.83 87.11 11.98 148.74 17.59 148.78 17.44 87.15 11.83"/><polygon class="cls-2" points="87.16 11.83 87.1 11.98 157.53 23.21 157.59 23.06 87.16 11.83"/><polygon class="cls-2" points="87.13 11.83 87.13 11.98 140.01 12.02 140.01 11.87 87.13 11.83"/><polygon class="cls-2" points="114.09 11.98 113.95 12.11 157.58 34.06 157.72 33.93 114.09 11.98"/><polygon class="cls-2" points="114.1 11.98 113.94 12.1 157.64 39.51 157.79 39.4 114.1 11.98"/><polygon class="cls-2" points="114.19 11.94 114.08 12.08 157.6 28.57 157.71 28.43 114.19 11.94"/><line class="cls-1" x1="232.24" y1="81.66" x2="209.27" y2="9.44"/><line class="cls-1" x1="227.36" y1="81.66" x2="209.14" y2="9.17"/><line class="cls-1" x1="222.91" y1="81.66" x2="209.14" y2="9.17"/><line class="cls-1" x1="236.41" y1="81.66" x2="209.27" y2="9.44"/><line class="cls-1" x1="236.69" y1="81.66" x2="189.88" y2="13.32"/><line class="cls-1" x1="236.69" y1="81.66" x2="194.57" y2="9.17"/><line class="cls-1" x1="236.69" y1="81.66" x2="200.11" y2="9.17"/><line class="cls-1" x1="168.65" y1="81.66" x2="191.62" y2="9.44"/><line class="cls-1" x1="173.52" y1="81.66" x2="191.75" y2="9.17"/><line class="cls-1" x1="177.97" y1="81.66" x2="191.75" y2="9.17"/><line class="cls-1" x1="164.47" y1="81.66" x2="191.62" y2="9.44"/><line class="cls-1" x1="164.2" y1="81.66" x2="210.05" y2="12.8"/><line class="cls-1" x1="164.2" y1="81.66" x2="206.77" y2="9.44"/><line class="cls-1" x1="164.2" y1="81.66" x2="200.77" y2="9.17"/><line class="cls-1" x1="236.96" y1="53.9" x2="164.58" y2="53.9"/><line class="cls-1" x1="236.96" y1="49.2" x2="164.58" y2="53.9"/><line class="cls-1" x1="236.96" y1="44.81" x2="164.58" y2="53.9"/><line class="cls-1" x1="236.96" y1="40.1" x2="164.58" y2="53.9"/></svg>