<svg id="Camada_1" data-name="Camada 1" xmlns="http://www.w3.org/2000/svg" viewBox="0 0 769.02 87.32"><defs><style>.cls-1,.cls-2{fill:none;stroke:#fff;stroke-miterlimit:10;}.cls-1{stroke-width:0.5px;}</style></defs><line class="cls-1" x1="165.8" y1="7.24" x2="159.67" y2="79.09"/><line class="cls-1" x1="171.51" y1="7.24" x2="159.67" y2="79.09"/><line class="cls-1" x1="176.36" y1="7.24" x2="159.67" y2="79.09"/><line class="cls-1" x1="181.85" y1="7.14" x2="159.67" y2="79.09"/><line class="cls-1" x1="159.93" y1="79.04" x2="159.93" y2="7.19"/><line class="cls-1" x1="166.05" y1="79.04" x2="159.93" y2="7.19"/><line class="cls-1" x1="171.76" y1="79.04" x2="159.93" y2="7.19"/><line class="cls-1" x1="177.9" y1="79.04" x2="159.93" y2="7.19"/><line class="cls-1" x1="182.09" y1="79.14" x2="159.91" y2="7.19"/><polygon class="cls-2" points="159.73 42.99 159.7 42.87 218 38.32 218.04 38.45 159.73 42.99"/><polygon class="cls-2" points="159.74 42.99 159.69 42.87 226.32 33.78 226.38 33.9 159.74 42.99"/><polygon class="cls-2" points="159.72 42.99 159.71 42.86 209.75 42.83 209.75 42.95 159.72 42.99"/><polygon class="cls-2" points="187.18 42.87 187.04 42.76 231.47 25 231.61 25.11 187.18 42.87"/><polygon class="cls-2" points="187.19 42.86 187.03 42.77 231.53 20.59 231.68 20.69 187.19 42.86"/><polygon class="cls-2" points="187.28 42.89 187.17 42.78 231.49 29.44 231.6 29.55 187.28 42.89"/><polygon class="cls-2" points="159.64 7.19 159.6 7.31 222.37 11.85 222.4 11.73 159.64 7.19"/><polygon class="cls-2" points="159.65 7.19 159.59 7.31 231.32 16.39 231.38 16.27 159.65 7.19"/><polygon class="cls-2" points="159.62 7.19 159.62 7.31 213.48 7.35 213.48 7.22 159.62 7.19"/><polygon class="cls-2" points="187.08 7.31 186.94 7.42 231.37 25.17 231.51 25.07 187.08 7.31"/><polygon class="cls-2" points="187.09 7.32 186.93 7.41 231.43 29.59 231.58 29.49 187.09 7.32"/><polygon class="cls-2" points="187.18 7.28 187.07 7.39 231.38 20.73 231.5 20.62 187.18 7.28"/><polygon class="cls-2" points="159.74 78.75 159.71 78.63 222.47 74.09 222.5 74.21 159.74 78.75"/><polygon class="cls-2" points="159.75 78.75 159.69 78.63 231.42 69.55 231.48 69.67 159.75 78.75"/><polygon class="cls-2" points="159.72 78.75 159.72 78.63 213.58 78.59 213.58 78.72 159.72 78.75"/><polygon class="cls-2" points="187.18 78.63 187.04 78.53 231.47 60.77 231.61 60.87 187.18 78.63"/><polygon class="cls-2" points="187.19 78.63 187.03 78.53 231.53 56.36 231.68 56.45 187.19 78.63"/><polygon class="cls-2" points="187.28 78.66 187.17 78.55 231.49 65.21 231.6 65.32 187.28 78.66"/><polygon class="cls-2" points="159.64 42.95 159.6 43.08 217.91 47.62 217.94 47.5 159.64 42.95"/><polygon class="cls-2" points="159.65 42.96 159.59 43.08 226.23 52.16 226.29 52.04 159.65 42.96"/><polygon class="cls-2" points="159.62 42.95 159.62 43.08 209.65 43.11 209.65 42.99 159.62 42.95"/><polygon class="cls-2" points="187.08 43.08 186.94 43.18 231.37 60.94 231.51 60.84 187.08 43.08"/><polygon class="cls-2" points="187.09 43.08 186.93 43.18 231.43 65.35 231.58 65.25 187.09 43.08"/><polygon class="cls-2" points="187.18 43.05 187.07 43.16 231.38 56.5 231.5 56.39 187.18 43.05"/><line class="cls-1" x1="312.5" y1="78.48" x2="240.34" y2="36.39"/><line class="cls-1" x1="312.5" y1="78.48" x2="240.35" y2="41.58"/><line class="cls-1" x1="312.5" y1="78.48" x2="240.39" y2="46.29"/><line class="cls-1" x1="312.5" y1="78.48" x2="240.4" y2="51.2"/><line class="cls-1" x1="246.72" y1="7.53" x2="240.61" y2="79.16"/><line class="cls-1" x1="252.41" y1="7.53" x2="240.61" y2="79.16"/><line class="cls-1" x1="258.52" y1="7.53" x2="240.61" y2="79.16"/><line class="cls-1" x1="264.42" y1="7.43" x2="240.61" y2="79.16"/><line class="cls-1" x1="240.87" y1="79.11" x2="240.87" y2="7.48"/><line class="cls-1" x1="246.97" y1="79.11" x2="240.87" y2="7.48"/><line class="cls-1" x1="252.67" y1="79.11" x2="240.87" y2="7.48"/><line class="cls-1" x1="258.78" y1="79.11" x2="240.87" y2="7.48"/><line class="cls-1" x1="264.68" y1="79.2" x2="240.87" y2="7.48"/><polygon class="cls-2" points="268.04 52.26 267.9 52.13 312.19 29.84 312.33 29.97 268.04 52.26"/><polygon class="cls-2" points="268.05 52.25 267.89 52.13 312.25 24.3 312.4 24.42 268.05 52.25"/><polygon class="cls-2" points="268.14 52.29 268.02 52.15 312.21 35.41 312.32 35.55 268.14 52.29"/><polygon class="cls-2" points="240.58 7.48 240.55 7.63 303.11 13.33 303.15 13.18 240.58 7.48"/><polygon class="cls-2" points="240.59 7.48 240.53 7.63 312.04 19.03 312.1 18.88 240.59 7.48"/><polygon class="cls-2" points="240.56 7.48 240.56 7.63 294.25 7.68 294.25 7.52 240.56 7.48"/><polygon class="cls-2" points="267.94 7.63 267.8 7.76 312.09 30.05 312.23 29.92 267.94 7.63"/><polygon class="cls-2" points="267.95 7.64 267.79 7.76 312.15 35.59 312.31 35.47 267.95 7.64"/><polygon class="cls-2" points="268.04 7.6 267.93 7.74 312.11 24.48 312.22 24.34 268.04 7.6"/><polyline class="cls-1" points="321.89 6.32 325.29 43.48 326.39 55.48 326.89 60.99 327.22 64.61 328.54 79.04"/><polyline class="cls-1" points="321.89 6.32 326.38 31.84 328.53 44.08 329.7 50.71 330.54 55.51 334.68 79.04"/><polyline class="cls-1" points="321.89 6.32 326.98 25.42 329.94 36.54 331.73 43.25 333.11 48.44 341.27 79.04"/><polyline class="cls-1" points="321.89 6.32 327.33 21.69 330.86 31.68 333.13 38.11 334.98 43.33 347.6 79.04"/><polyline class="cls-1" points="321.96 79.04 325.29 43.5 325.29 43.48 326.38 31.84 326.38 31.83 326.98 25.42 326.98 25.41 327.33 21.69 327.33 21.69 328.77 6.32"/><polyline class="cls-1" points="321.96 79.04 326.39 55.48 326.39 55.48 328.53 44.08 329.94 36.54 329.94 36.54 330.86 31.68 335.62 6.32"/><polyline class="cls-1" points="321.96 79.04 326.89 60.99 326.89 60.98 329.7 50.71 329.7 50.7 331.73 43.25 331.73 43.24 333.13 38.12 333.13 38.11 341.81 6.32"/><line class="cls-1" x1="348.38" y1="6.52" x2="321.97" y2="79.04"/><line class="cls-1" x1="321.15" y1="6.59" x2="393.92" y2="6.61"/><line class="cls-1" x1="321.25" y1="11.55" x2="393.92" y2="6.61"/><line class="cls-1" x1="321.94" y1="19.48" x2="393.92" y2="6.61"/><line class="cls-1" x1="321.89" y1="27.73" x2="393.92" y2="6.61"/><line class="cls-1" x1="321.15" y1="79.21" x2="393.92" y2="79.19"/><line class="cls-1" x1="321.25" y1="74.25" x2="393.92" y2="79.19"/><line class="cls-1" x1="321.94" y1="66.32" x2="393.92" y2="79.19"/><line class="cls-1" x1="321.89" y1="58.07" x2="393.92" y2="79.19"/><line class="cls-1" x1="321.26" y1="50.47" x2="393.79" y2="44.01"/><line class="cls-1" x1="322" y1="43.9" x2="393.79" y2="44.01"/><line class="cls-1" x1="322.05" y1="38.08" x2="393.79" y2="44.01"/><line class="cls-1" x1="322" y1="33.09" x2="393.79" y2="44.01"/><line class="cls-1" x1="462.47" y1="22.14" x2="524.89" y2="8.59"/><line class="cls-1" x1="466.84" y1="17.6" x2="524.89" y2="8.59"/><line class="cls-1" x1="457.85" y1="26.61" x2="524.89" y2="8.59"/><line class="cls-1" x1="475.84" y1="8.66" x2="524.89" y2="8.59"/><line class="cls-1" x1="462.41" y1="71.14" x2="524.89" y2="80.24"/><line class="cls-1" x1="453.48" y1="62.05" x2="524.89" y2="80.24"/><line class="cls-1" x1="466.92" y1="75.7" x2="524.89" y2="80.24"/><line class="cls-1" x1="457.79" y1="66.78" x2="524.89" y2="80.24"/><line class="cls-1" x1="471.28" y1="80.16" x2="524.89" y2="80.24"/><line class="cls-1" x1="453.42" y1="44.46" x2="507.04" y2="8.76"/><line class="cls-1" x1="453.35" y1="53.29" x2="507.04" y2="8.76"/><line class="cls-1" x1="453.62" y1="39.8" x2="507.04" y2="8.76"/><line class="cls-1" x1="453.35" y1="48.99" x2="507.04" y2="8.76"/><line class="cls-1" x1="453.42" y1="35.56" x2="506.93" y2="8.71"/><line class="cls-1" x1="453.42" y1="35.56" x2="524.89" y2="8.59"/><line class="cls-1" x1="453.62" y1="39.8" x2="524.89" y2="8.59"/><line class="cls-1" x1="471.28" y1="13.1" x2="524.89" y2="8.59"/><line class="cls-1" x1="453.39" y1="44.46" x2="507.02" y2="80.15"/><line class="cls-1" x1="453.33" y1="35.62" x2="507.02" y2="80.15"/><line class="cls-1" x1="453.59" y1="49.11" x2="507.02" y2="80.15"/><line class="cls-1" x1="453.33" y1="39.92" x2="507.02" y2="80.15"/><line class="cls-1" x1="453.39" y1="53.35" x2="506.91" y2="80.2"/><line class="cls-1" x1="534.63" y1="22.15" x2="597.05" y2="8.61"/><line class="cls-1" x1="539" y1="17.61" x2="597.05" y2="8.61"/><line class="cls-1" x1="530.01" y1="26.62" x2="597.05" y2="8.61"/><line class="cls-1" x1="548" y1="8.67" x2="597.05" y2="8.61"/><line class="cls-1" x1="534.57" y1="71.15" x2="597.05" y2="80.25"/><line class="cls-1" x1="525.64" y1="62.06" x2="597.05" y2="80.25"/><line class="cls-1" x1="539.08" y1="75.72" x2="597.05" y2="80.25"/><line class="cls-1" x1="529.95" y1="66.8" x2="597.05" y2="80.25"/><line class="cls-1" x1="543.44" y1="80.18" x2="597.05" y2="80.25"/><line class="cls-1" x1="525.58" y1="44.47" x2="579.2" y2="8.77"/><line class="cls-1" x1="525.51" y1="53.31" x2="579.2" y2="8.77"/><line class="cls-1" x1="525.78" y1="39.82" x2="579.2" y2="8.77"/><line class="cls-1" x1="525.51" y1="49" x2="579.2" y2="8.77"/><line class="cls-1" x1="525.58" y1="35.57" x2="579.09" y2="8.72"/><line class="cls-1" x1="525.58" y1="35.57" x2="597.05" y2="8.61"/><line class="cls-1" x1="525.78" y1="39.82" x2="597.05" y2="8.61"/><line class="cls-1" x1="543.44" y1="13.11" x2="597.05" y2="8.61"/><line class="cls-1" x1="525.55" y1="44.47" x2="579.18" y2="80.16"/><line class="cls-1" x1="525.49" y1="35.63" x2="579.18" y2="80.16"/><line class="cls-1" x1="525.75" y1="49.12" x2="579.18" y2="80.16"/><line class="cls-1" x1="525.49" y1="39.94" x2="579.18" y2="80.16"/><line class="cls-1" x1="525.55" y1="53.36" x2="579.06" y2="80.21"/><line class="cls-1" x1="606.54" y1="80.54" x2="606.54" y2="8.59"/><line class="cls-1" x1="669.27" y1="22.08" x2="606.36" y2="8.43"/><line class="cls-1" x1="664.87" y1="17.51" x2="606.36" y2="8.43"/><line class="cls-1" x1="673.93" y1="26.58" x2="606.36" y2="8.43"/><line class="cls-1" x1="655.8" y1="8.49" x2="606.36" y2="8.43"/><line class="cls-1" x1="669.34" y1="71.46" x2="606.36" y2="80.63"/><line class="cls-1" x1="678.34" y1="62.3" x2="606.36" y2="80.63"/><line class="cls-1" x1="664.79" y1="76.06" x2="606.36" y2="80.63"/><line class="cls-1" x1="674" y1="67.07" x2="606.36" y2="80.63"/><line class="cls-1" x1="660.4" y1="80.56" x2="606.36" y2="80.63"/><line class="cls-1" x1="610.99" y1="8.64" x2="606.34" y2="80.59"/><line class="cls-1" x1="615.32" y1="8.64" x2="606.34" y2="80.59"/><line class="cls-1" x1="619.98" y1="8.64" x2="606.34" y2="80.59"/><line class="cls-1" x1="624.47" y1="8.55" x2="606.34" y2="80.59"/><line class="cls-1" x1="611.19" y1="80.54" x2="606.54" y2="8.59"/><line class="cls-1" x1="615.52" y1="80.54" x2="606.54" y2="8.59"/><line class="cls-1" x1="620.17" y1="80.54" x2="606.54" y2="8.59"/><line class="cls-1" x1="624.66" y1="80.64" x2="606.54" y2="8.59"/><line class="cls-1" x1="678.4" y1="44.57" x2="624.35" y2="8.6"/><line class="cls-1" x1="678.46" y1="53.48" x2="624.35" y2="8.6"/><line class="cls-1" x1="678.2" y1="39.88" x2="624.35" y2="8.6"/><line class="cls-1" x1="678.46" y1="49.14" x2="624.35" y2="8.6"/><line class="cls-1" x1="678.4" y1="35.6" x2="624.47" y2="8.55"/><line class="cls-1" x1="678.4" y1="35.6" x2="606.36" y2="8.43"/><line class="cls-1" x1="678.2" y1="39.88" x2="606.36" y2="8.43"/><line class="cls-1" x1="660.4" y1="12.97" x2="606.36" y2="8.43"/><line class="cls-1" x1="678.43" y1="44.57" x2="624.38" y2="80.54"/><line class="cls-1" x1="678.49" y1="35.66" x2="624.38" y2="80.54"/><line class="cls-1" x1="678.22" y1="49.26" x2="624.38" y2="80.54"/><line class="cls-1" x1="678.49" y1="40" x2="624.38" y2="80.54"/><line class="cls-1" x1="678.43" y1="53.53" x2="624.49" y2="80.59"/><line class="cls-1" x1="688.38" y1="8.37" x2="715.17" y2="43.85"/><line class="cls-1" x1="688.38" y1="8.37" x2="719.61" y2="43.85"/><line class="cls-1" x1="688.38" y1="8.37" x2="733.14" y2="44.09"/><line class="cls-1" x1="688.38" y1="8.37" x2="728.58" y2="44.03"/><line class="cls-1" x1="760.11" y1="8.37" x2="733.14" y2="44.09"/><line class="cls-1" x1="760.11" y1="8.37" x2="728.58" y2="44.03"/><line class="cls-1" x1="760.11" y1="8.37" x2="714.92" y2="43.85"/><line class="cls-1" x1="760.11" y1="8.37" x2="719.73" y2="43.91"/><line class="cls-1" x1="688.38" y1="8.37" x2="723.99" y2="43.99"/><line class="cls-1" x1="760.11" y1="8.37" x2="723.99" y2="43.99"/><line class="cls-1" x1="692.82" y1="8.13" x2="688.39" y2="80.12"/><line class="cls-1" x1="697.23" y1="8.19" x2="688.4" y2="79.74"/><line class="cls-1" x1="701.68" y1="8.19" x2="688.4" y2="79.74"/><line class="cls-1" x1="706.25" y1="8.19" x2="688.4" y2="79.74"/><line class="cls-1" x1="688.38" y1="8.37" x2="688.4" y2="79.74"/><line class="cls-1" x1="755.44" y1="8.13" x2="759.86" y2="80.12"/><line class="cls-1" x1="751.02" y1="8.19" x2="759.85" y2="79.74"/><line class="cls-1" x1="746.58" y1="8.19" x2="759.85" y2="79.74"/><line class="cls-1" x1="742.01" y1="8.19" x2="759.85" y2="79.74"/><line class="cls-1" x1="759.88" y1="8.37" x2="759.85" y2="79.74"/><line class="cls-1" x1="692.83" y1="80.03" x2="688.4" y2="8.04"/><line class="cls-1" x1="697.25" y1="79.96" x2="688.42" y2="8.42"/><line class="cls-1" x1="701.69" y1="79.96" x2="688.42" y2="8.42"/><line class="cls-1" x1="706.26" y1="79.96" x2="688.42" y2="8.42"/><line class="cls-1" x1="755.42" y1="80.38" x2="759.85" y2="8.39"/><line class="cls-1" x1="751.01" y1="80.32" x2="759.84" y2="8.77"/><line class="cls-1" x1="746.57" y1="80.32" x2="759.84" y2="8.77"/><line class="cls-1" x1="742" y1="80.32" x2="759.84" y2="8.77"/><line class="cls-1" x1="39.26" y1="46.91" x2="5.85" y2="18.71"/><line class="cls-1" x1="39.26" y1="46.91" x2="9.79" y2="14.96"/><polyline class="cls-1" points="16.8 12.35 32.51 36.52 33.6 38.2 39.26 46.91"/><polyline class="cls-1" points="25.87 10.35 35.97 37.95 35.98 37.95 36.58 39.59 39.26 46.91"/><line class="cls-1" x1="78.72" y1="7.68" x2="11.05" y2="12.36"/><line class="cls-1" x1="78.72" y1="7.68" x2="6.6" y2="17.3"/><line class="cls-1" x1="78.72" y1="7.68" x2="7.61" y2="23.98"/><line class="cls-1" x1="78.72" y1="7.68" x2="11.86" y2="27.96"/><polyline class="cls-1" points="35.97 37.95 35.98 37.95 36.09 38 36.12 38.01 36.16 38.02 36.2 38.04 68.63 51.38"/><line class="cls-1" x1="73.74" y1="59.01" x2="39.15" y2="40.8"/><line class="cls-1" x1="72.61" y1="63.88" x2="48.75" y2="49.75"/><polyline class="cls-1" points="73.26 69.21 58.44 58.79 58.43 58.78"/><polyline class="cls-1" points="36.06 37.92 36.2 38.04 39.15 40.8 48.75 49.75 58.43 58.78 58.44 58.79 72.31 71.73"/><polyline class="cls-1" points="36.06 37.92 36.16 38.02 38.13 40.32 43.68 46.77 48.23 52.06 68.38 75.48"/><polyline class="cls-1" points="36.06 37.92 36.12 38.01 37.35 39.95 40.45 44.87 42.66 48.39 61.36 78.08"/><polyline class="cls-1" points="36.06 37.92 36.09 38 36.74 39.67 36.74 39.67 38.24 43.58 39.22 46.12 52.29 80.09"/><line class="cls-1" x1="4.04" y1="63.88" x2="52.3" y2="80.09"/><line class="cls-1" x1="4.04" y1="63.88" x2="61.36" y2="78.08"/><line class="cls-1" x1="4.04" y1="63.88" x2="68.38" y2="75.48"/><line class="cls-1" x1="4.04" y1="63.88" x2="72.61" y2="71.73"/><line class="cls-1" x1="80.31" y1="43.7" x2="115.69" y2="7.16"/><line class="cls-1" x1="80.28" y1="55.04" x2="115.69" y2="7.16"/><line class="cls-1" x1="80.42" y1="38.3" x2="115.69" y2="7.16"/><line class="cls-1" x1="80.28" y1="49.75" x2="115.69" y2="7.16"/><line class="cls-1" x1="80.31" y1="33.03" x2="115.69" y2="7.16"/><line class="cls-1" x1="80.42" y1="38.3" x2="115.69" y2="7.16"/><line class="cls-1" x1="80.3" y1="43.7" x2="115.97" y2="79.34"/><line class="cls-1" x1="80.26" y1="33.09" x2="115.97" y2="79.34"/><line class="cls-1" x1="80.41" y1="49.87" x2="115.97" y2="79.34"/><line class="cls-1" x1="80.26" y1="38.42" x2="115.97" y2="79.34"/><line class="cls-1" x1="80.3" y1="55.1" x2="115.91" y2="79.39"/><line class="cls-1" x1="150.97" y1="43.7" x2="115.59" y2="7.16"/><line class="cls-1" x1="151.01" y1="55.04" x2="115.59" y2="7.16"/><line class="cls-1" x1="150.86" y1="38.3" x2="115.59" y2="7.16"/><line class="cls-1" x1="151.01" y1="49.75" x2="115.59" y2="7.16"/><line class="cls-1" x1="150.97" y1="33.03" x2="115.59" y2="7.16"/><line class="cls-1" x1="150.86" y1="38.3" x2="115.59" y2="7.16"/><line class="cls-1" x1="150.98" y1="43.7" x2="115.31" y2="79.34"/><line class="cls-1" x1="151.02" y1="33.09" x2="115.31" y2="79.34"/><line class="cls-1" x1="150.87" y1="49.87" x2="115.31" y2="79.34"/><line class="cls-1" x1="151.02" y1="38.42" x2="115.31" y2="79.34"/><line class="cls-1" x1="150.98" y1="55.1" x2="115.38" y2="79.39"/></svg>